<?xml version="1.0" encoding="iso-8859-1"?>
<!-- Uploaded to: SVG Repo, www.svgrepo.com, Generator: SVG Repo Mixer Tools -->
<svg fill="#000000" height="800px" width="800px" version="1.1" id="Capa_1" xmlns="http://www.w3.org/2000/svg" xmlns:xlink="http://www.w3.org/1999/xlink" 
	 viewBox="0 0 612 612" xml:space="preserve">
<g>
	<g>
		<path d="M348.521,96.371c-4.918-3.23-11.129-3.769-16.538-1.422L118.19,187.591c-1.152-5.21-5.8-9.116-11.362-9.116H11.653
			C5.21,178.475,0,183.689,0,190.124v231.758c0,6.433,5.21,11.645,11.653,11.645h95.175c5.56,0,10.21-3.902,11.362-9.112
			l213.793,92.641c2.223,0.964,4.588,1.439,6.952,1.439c3.349,0,6.693-0.968,9.586-2.863c4.914-3.23,7.882-8.721,7.882-14.603
			V110.975C356.402,105.089,353.434,99.597,348.521,96.371z"/>
		<path d="M554.275,306.002l47.388-47.388c13.783-13.781,13.783-36.122,0-49.903c-13.777-13.783-36.124-13.783-49.903,0
			L504.373,256.1l-47.388-47.388c-13.779-13.783-36.122-13.783-49.901,0c-13.781,13.781-13.781,36.122,0,49.903l47.388,47.388
			l-47.388,47.388c-13.781,13.781-13.781,36.122,0,49.903c6.89,6.892,15.92,10.335,24.951,10.335
			c9.031,0,18.061-3.444,24.949-10.335l47.388-47.388l47.388,47.388c6.892,6.892,15.922,10.335,24.953,10.335
			c9.031,0,18.063-3.444,24.949-10.335c13.783-13.781,13.783-36.122,0-49.903L554.275,306.002z"/>
	</g>
</g>
</svg>